<?xml version="1.0" standalone="no"?>
<!DOCTYPE svg PUBLIC "-//W3C//DTD SVG 20010904//EN"
 "http://www.w3.org/TR/2001/REC-SVG-20010904/DTD/svg10.dtd">
<svg version="1.0" xmlns="http://www.w3.org/2000/svg"
 width="1563.000000pt" height="1563.000000pt" viewBox="0 0 1563.000000 1563.000000"
 preserveAspectRatio="xMidYMid meet">

<g transform="translate(0.000000,1563.000000) scale(0.100000,-0.100000)"
fill="#000000" stroke="none">
<path d="M7753 13738 c-33 -45 -295 -417 -582 -825 l-522 -742 -52 23 c-29 13
-380 175 -782 361 -401 186 -791 366 -865 400 l-135 63 -7 -42 c-4 -22 -47
-475 -94 -1006 -47 -531 -87 -966 -88 -966 0 -1 -433 -40 -961 -88 -528 -47
-981 -89 -1007 -93 l-47 -8 415 -895 c229 -492 419 -905 424 -917 10 -23 17
-18 -1294 -940 -186 -131 -338 -242 -338 -248 0 -5 152 -117 338 -248 1311
-922 1304 -917 1294 -940 -5 -12 -195 -425 -424 -917 l-415 -895 47 -8 c26 -4
479 -46 1007 -93 528 -48 961 -87 961 -88 1 0 40 -435 88 -966 47 -531 90
-984 94 -1006 l7 -41 125 57 c69 31 458 211 865 400 407 188 763 353 792 366
l52 23 522 -742 c287 -408 549 -780 582 -826 l60 -84 18 22 c10 12 273 384
584 826 l566 804 27 -12 c15 -7 427 -197 917 -424 l890 -411 7 41 c4 23 47
476 94 1007 47 531 87 966 88 966 0 1 435 41 966 88 531 48 984 90 1007 94
l42 7 -415 895 c-229 492 -419 905 -424 917 -8 20 14 38 268 217 152 107 522
368 822 579 300 211 544 388 544 393 -1 5 -246 181 -545 392 -299 211 -669
471 -821 578 l-278 196 14 31 c8 18 173 376 368 797 196 421 380 819 411 885
l55 120 -41 7 c-23 4 -476 46 -1007 94 -531 47 -966 87 -966 88 -1 0 -41 435
-88 966 -47 531 -90 984 -94 1006 l-7 41 -125 -57 c-69 -32 -458 -212 -865
-400 -407 -188 -763 -353 -792 -366 l-52 -23 -114 162 c-726 1033 -1031 1464
-1042 1475 -10 11 -23 -1 -72 -70z m2257 -5423 l0 -1345 -275 0 -275 0 0 1345
0 1345 275 0 275 0 0 -1345z m-1140 560 l0 -295 168 -2 167 -3 0 -210 0 -210
-168 -3 -168 -2 3 -313 c3 -284 5 -315 22 -349 36 -69 108 -84 198 -39 27 13
41 16 44 8 2 -7 31 -101 65 -211 33 -109 63 -204 65 -210 7 -17 -122 -70 -218
-90 -100 -21 -285 -21 -363 -1 -169 44 -285 167 -342 363 -14 48 -17 119 -21
449 l-3 392 -117 3 -117 3 0 210 0 210 118 3 117 3 0 294 0 295 275 0 275 0 0
-295z m-1159 -293 c130 -34 229 -75 229 -93 0 -10 -164 -334 -176 -348 -2 -2
-40 13 -86 32 -112 48 -175 60 -290 56 -86 -4 -99 -7 -122 -28 -26 -24 -34
-68 -20 -105 11 -27 68 -55 231 -111 200 -68 279 -111 369 -200 91 -90 115
-147 122 -291 5 -119 -8 -191 -50 -275 -63 -126 -179 -207 -363 -255 -123 -32
-387 -45 -510 -25 -87 14 -219 57 -297 96 -67 34 -149 96 -146 111 6 22 213
364 222 364 4 0 25 -13 45 -28 107 -83 257 -144 356 -145 107 -1 165 38 165
112 0 56 -56 100 -192 150 -168 61 -268 121 -364 216 -74 72 -84 87 -103 149
-35 114 -24 262 28 364 47 92 162 188 280 233 121 46 214 59 391 55 145 -3
179 -7 281 -34z m-1643 -956 c159 -43 263 -177 265 -341 1 -118 -44 -210 -138
-285 -82 -65 -220 -88 -331 -55 -77 23 -162 97 -204 179 -32 63 -35 76 -35
155 0 73 5 95 28 146 75 162 247 245 415 201z"/>
</g>
</svg>
